<svg width="25" height="19" viewBox="0 0 25 19" fill="none" xmlns="http://www.w3.org/2000/svg">
<g clip-path="url(#clip0_2685_12162)">
<path d="M3.73335 8.00491H11.2799V18.7733H0.50079C0.50079 18.6754 0.50079 18.5873 0.50079 18.4992C0.50079 14.9995 0.496875 11.4998 0.502747 8.001C0.504705 6.83931 0.898131 5.77843 1.40411 4.75572C2.0882 3.37285 2.969 2.12211 3.97019 0.955529C4.03086 0.885064 4.14048 0.8146 4.22758 0.813621C5.20625 0.803834 6.18492 0.807749 7.1636 0.808728C7.19296 0.808728 7.22232 0.819493 7.28006 0.830259C5.21114 2.78467 3.81947 5.0503 3.73335 8.00393V8.00491Z" fill="black"/>
<path d="M20.5029 0.829392C18.4291 2.79261 17.0384 5.05139 16.9552 7.99915H24.4988V18.7743H13.7383C13.7334 18.6902 13.7236 18.605 13.7236 18.5199C13.7236 15.0202 13.7236 11.5214 13.7236 8.02166C13.7236 6.88444 14.0965 5.84509 14.5829 4.84097C15.269 3.42385 16.1723 2.14864 17.1881 0.952704C17.2488 0.88224 17.3604 0.814712 17.4485 0.813733C18.4271 0.804925 19.4058 0.808839 20.3845 0.809818C20.4138 0.809818 20.4442 0.819605 20.5019 0.829392H20.5029Z" fill="black"/>
</g>
<defs>
<clipPath id="clip0_2685_12162">
<rect width="24" height="17.9665" fill="white" transform="translate(0.5 0.807129)"/>
</clipPath>
</defs>
</svg>
